<?xml version="1.0" encoding="UTF-8" standalone="no"?>
<!-- Created with Inkscape (http://www.inkscape.org/) -->

<svg
   xmlns:dc="http://purl.org/dc/elements/1.1/"
   xmlns:cc="http://creativecommons.org/ns#"
   xmlns:rdf="http://www.w3.org/1999/02/22-rdf-syntax-ns#"
   xmlns:svg="http://www.w3.org/2000/svg"
   xmlns="http://www.w3.org/2000/svg"
   xmlns:sodipodi="http://sodipodi.sourceforge.net/DTD/sodipodi-0.dtd"
   xmlns:inkscape="http://www.inkscape.org/namespaces/inkscape"
   width="480"
   height="100"
   id="svg2"
   version="1.1"
   inkscape:version="0.48.3.1 r9886"
   sodipodi:docname="howdoiflap.svg">
  <defs
     id="defs4" />
  <sodipodi:namedview
     id="base"
     pagecolor="#ffffff"
     bordercolor="#666666"
     borderopacity="1.0"
     inkscape:pageopacity="0.0"
     inkscape:pageshadow="2"
     inkscape:zoom="0.98994949"
     inkscape:cx="341.52083"
     inkscape:cy="73.626522"
     inkscape:document-units="px"
     inkscape:current-layer="layer1"
     showgrid="false"
     inkscape:window-width="1855"
     inkscape:window-height="1056"
     inkscape:window-x="65"
     inkscape:window-y="24"
     inkscape:window-maximized="1"
     showguides="true"
     inkscape:guide-bbox="true" />
  <metadata
     id="metadata7">
    <rdf:RDF>
      <cc:Work
         rdf:about="">
        <dc:format>image/svg+xml</dc:format>
        <dc:type
           rdf:resource="http://purl.org/dc/dcmitype/StillImage" />
        <dc:title></dc:title>
      </cc:Work>
    </rdf:RDF>
  </metadata>
  <g
     inkscape:label="Layer 1"
     inkscape:groupmode="layer"
     id="layer1"
     transform="translate(0,-952.3622)">
    <g
       id="g3259"
       inkscape:export-filename="/home/2010/wliu65/public_html/howdoi.land/martlet.png"
       inkscape:export-xdpi="180"
       inkscape:export-ydpi="180"
       transform="matrix(2,0,0,2,-386.53657,-62.362165)">
      <g
         transform="translate(0.35933461,0)"
         id="g3190">
        <rect
           style="fill:none;stroke:none"
           id="rect3096"
           width="60"
           height="50"
           x="252.90895"
           y="507.36218"
           inkscape:export-filename="/home/2010/wliu65/public_html/howdoi.land/martlet.png"
           inkscape:export-xdpi="89.999992"
           inkscape:export-ydpi="89.999992" />
        <path
           sodipodi:nodetypes="csssccccccczzccccccccccccccccc"
           inkscape:export-ydpi="89.999992"
           inkscape:export-xdpi="89.999992"
           id="martlet"
           d="m 263.16328,515.3705 c 0.54273,0 0.90211,0.39605 0.90211,0.93879 0,0.46573 -0.35938,0.86178 -0.90211,0.86178 -0.5024,0 -0.89845,-0.39605 -0.89845,-0.86178 0,-0.54274 0.39605,-0.93879 0.89845,-0.93879 m -6.26713,12.75429 c 0.24345,-1.30142 1.26516,-3.56445 1.80056,-4.4299 -0.5354,-0.93878 -1.40451,-1.80422 -2.16361,-1.80422 0.36305,-0.93512 1.87391,-2.0536 1.62454,-2.8457 -0.39605,-0.75543 -0.97912,-0.64908 -2.55966,-1.51086 0.5354,-1.01213 1.69422,-1.65754 2.44965,-1.76756 0.93878,-0.10635 0.78139,-1.47015 2.26995,-2.19661 1.48856,-0.72645 2.85864,-1.07305 5.00564,-0.86544 2.147,0.20761 9.08348,2.01692 7.27925,10.05161 3.96051,8.03469 17.97995,-2.66601 22.84257,-2.66601 -0.90211,1.80057 -2.16361,3.60479 -3.10239,5.36869 1.33483,0.86544 3.10239,0 4.5069,0 -1.40451,4.47023 -4.10718,6.27079 -6.26713,8.03468 2.15995,7.13624 10.44767,4.36022 17.8296,3.60479 -0.85811,2.37631 -3.89083,2.66601 -5.29167,4.43357 2.55966,2.666 5.29167,6.26713 7.09957,9.83525 -3.31142,-2.16361 -10.19463,-4.50324 -12.46458,-5.36869 -4.47024,-1.80056 -13.54639,-1.80056 -17.97996,0 0.86545,1.80057 2.66601,2.66601 4.07052,3.56812 -2.30662,4.46657 -6.80986,1.80057 -9.4392,0.89845 -2.30662,1.76756 -6.52383,1.94725 -7.67531,0.90212 0,0 0,-1.11848 1.40452,-2.0536 0.86177,-1.26149 -2.70268,-1.51452 -3.67447,-3.31509 0,-1.69421 1.76022,0 2.77602,-1.80056 -2.30663,-4.43356 -11.63948,-5.36868 -10.34131,-16.07304 z"
           clip-rule="evenodd"
           inkscape:connector-curvature="0"
           style="fill:#cc2222;fill-opacity:1;fill-rule:evenodd"
           inkscape:export-filename="/home/2010/wliu65/public_html/howdoi.land/martlet.png" />
      </g>
      <g
         transform="translate(0.35931935,0)"
         id="g3197">
        <g
           id="g3194">
          <path
             inkscape:export-filename="/home/2010/wliu65/public_html/howdoi.land/martlet.png"
             sodipodi:nodetypes="csssccccccczzczccccccccccccccc"
             inkscape:export-ydpi="89.999992"
             inkscape:export-xdpi="89.999992"
             id="path3034"
             d="m 323.16327,515.3705 c 0.54273,0 0.90211,0.39605 0.90211,0.93879 0,0.46573 -0.35938,0.86178 -0.90211,0.86178 -0.5024,0 -0.89845,-0.39605 -0.89845,-0.86178 0,-0.54274 0.39605,-0.93879 0.89845,-0.93879 m -6.26713,12.75429 c 0.24345,-1.30142 1.26516,-3.56445 1.80056,-4.4299 -0.5354,-0.93878 -1.40451,-1.80422 -2.16361,-1.80422 0.36305,-0.93512 1.87391,-2.0536 1.62454,-2.8457 -0.39605,-0.75543 -0.97912,-0.64908 -2.55966,-1.51086 0.5354,-1.01213 1.69422,-1.65754 2.44965,-1.76756 0.93878,-0.10635 0.78139,-1.47015 2.26995,-2.19661 1.48856,-0.72645 2.85864,-1.07305 5.00564,-0.86544 2.147,0.20761 9.08348,2.01692 7.27925,10.05161 1.93572,1.33214 3.75254,1.43408 6.74326,1.00849 2.99072,-0.42559 5.27281,2.40337 7.31482,3.46196 2.28185,0.92857 8.94139,2.033 10.3459,2.033 -3.17228,3.20754 -7.03194,2.38073 -9.19189,4.14462 4.3921,3.83267 13.21553,4.44951 20.59746,3.69408 -0.85811,2.37631 -3.89083,2.66601 -5.29167,4.43357 2.55966,2.666 5.29167,6.26713 7.09957,9.83525 -3.31142,-2.16361 -10.19463,-4.50324 -12.46458,-5.36869 -4.47024,-1.80056 -13.54639,-1.80056 -17.97996,0 0.86545,1.80057 2.66601,2.66601 4.07052,3.56812 -2.30662,4.46657 -6.80986,1.80057 -9.4392,0.89845 -2.30662,1.76756 -6.52383,1.94725 -7.67531,0.90212 0,0 0,-1.11848 1.40452,-2.0536 0.86177,-1.26149 -2.70268,-1.51452 -3.67447,-3.31509 0,-1.69421 1.76022,0 2.77602,-1.80056 -2.30663,-4.43356 -11.63948,-5.36868 -10.34131,-16.07304 z"
             clip-rule="evenodd"
             inkscape:connector-curvature="0"
             style="fill:#cc2222;fill-opacity:1;fill-rule:evenodd" />
        </g>
        <rect
           style="fill:none;stroke:none"
           id="rect3096-0"
           width="60"
           height="50"
           x="312.90897"
           y="507.36218"
           inkscape:export-filename="/home/2010/wliu65/public_html/howdoi.land/martlet.png"
           inkscape:export-xdpi="89.999992"
           inkscape:export-ydpi="89.999992" />
      </g>
      <g
         transform="translate(-59.640681,0)"
         id="g3206">
        <path
           style="fill:#cc2222;fill-opacity:1;fill-rule:evenodd"
           inkscape:connector-curvature="0"
           clip-rule="evenodd"
           d="m 443.16328,515.3705 c 0.54273,0 0.90211,0.39605 0.90211,0.93879 0,0.46573 -0.35938,0.86178 -0.90211,0.86178 -0.5024,0 -0.89845,-0.39605 -0.89845,-0.86178 0,-0.54274 0.39605,-0.93879 0.89845,-0.93879 m -6.26713,12.75429 c 0.24345,-1.30142 1.26516,-3.56445 1.80056,-4.4299 -0.5354,-0.93878 -1.40451,-1.80422 -2.16361,-1.80422 0.36305,-0.93512 1.87391,-2.0536 1.62454,-2.8457 -0.39605,-0.75543 -0.97912,-0.64908 -2.55966,-1.51086 0.5354,-1.01213 1.69422,-1.65754 2.44965,-1.76756 0.93878,-0.10635 0.78139,-1.47015 2.26995,-2.19661 1.48856,-0.72645 2.85864,-1.07305 5.00564,-0.86544 2.147,0.20761 9.08348,2.01692 7.27925,10.05161 3.46923,3.567 7.6572,5.40577 11.80521,7.76408 1.73557,1.00389 3.76287,3.63912 4.34306,4.09623 4.91974,3.87612 12.27935,3.23727 19.66128,2.48184 -0.85811,2.37631 -3.89083,2.66601 -5.29167,4.43357 2.55966,2.666 5.29167,6.26713 7.09957,9.83525 -3.31142,-2.16361 -10.19463,-4.50324 -12.46458,-5.36869 -4.47024,-1.80056 -13.54639,-1.80056 -17.97996,0 0.86545,1.80057 2.66601,2.66601 4.07052,3.56812 -2.30662,4.46657 -6.80986,1.80057 -9.4392,0.89845 -2.30662,1.76756 -6.52383,1.94725 -7.67531,0.90212 0,0 0,-1.11848 1.40452,-2.0536 0.86177,-1.26149 -2.70268,-1.51452 -3.67447,-3.31509 0,-1.69421 1.76022,0 2.77602,-1.80056 -2.30663,-4.43356 -11.63948,-5.36868 -10.34131,-16.07304 z"
           id="path3084"
           inkscape:export-xdpi="89.999992"
           inkscape:export-ydpi="89.999992"
           sodipodi:nodetypes="csssccccccczzccscccccccccccc"
           inkscape:export-filename="/home/2010/wliu65/public_html/howdoi.land/martlet.png" />
        <rect
           style="fill:none;stroke:none"
           id="rect3096-05"
           width="60"
           height="50"
           x="432.90897"
           y="507.36218"
           inkscape:export-filename="/home/2010/wliu65/public_html/howdoi.land/martlet.png"
           inkscape:export-xdpi="89.999992"
           inkscape:export-ydpi="89.999992" />
      </g>
      <g
         transform="translate(2.1450402,0)"
         id="g3186">
        <rect
           inkscape:export-ydpi="89.999992"
           inkscape:export-xdpi="89.999992"
           inkscape:export-filename="/home/2010/wliu65/public_html/howdoi.land/martlet.png"
           y="507.36218"
           x="191.12325"
           height="50"
           width="60"
           id="rect3182"
           style="fill:none;stroke:none" />
        <path
           inkscape:export-filename="/home/2010/wliu65/public_html/howdoi.land/martlet.png"
           style="fill:#cc2222;fill-opacity:1;fill-rule:evenodd"
           inkscape:connector-curvature="0"
           clip-rule="evenodd"
           d="m 201.37757,515.3705 c 0.54273,0 0.90211,0.39605 0.90211,0.93879 0,0.46573 -0.35938,0.86178 -0.90211,0.86178 -0.5024,0 -0.89845,-0.39605 -0.89845,-0.86178 0,-0.54274 0.39605,-0.93879 0.89845,-0.93879 m -6.26713,12.75429 c 0.24345,-1.30142 1.26516,-3.56445 1.80056,-4.4299 -0.5354,-0.93878 -1.40451,-1.80422 -2.16361,-1.80422 0.36305,-0.93512 1.87391,-2.0536 1.62454,-2.8457 -0.39605,-0.75543 -0.97912,-0.64908 -2.55966,-1.51086 0.5354,-1.01213 1.69422,-1.65754 2.44965,-1.76756 0.93878,-0.10635 0.78139,-1.47015 2.26995,-2.19661 1.48856,-0.72645 2.85864,-1.07305 5.00564,-0.86544 2.147,0.20761 9.08348,2.01692 7.27925,10.05161 3.96051,8.03469 16.80578,-11.61504 21.6684,-11.61504 -0.45106,0.90028 0.92466,1.26914 1.4209,2.85277 0.24811,0.79182 -0.5016,2.56479 0.57169,2.85737 0.53664,0.14629 1.53286,1.48909 1.49702,2.23178 -0.0358,0.74269 -1.37159,2.13528 -1.48894,2.35577 0.42036,1.33319 1.26968,2.48026 1.68483,3.0761 0.80918,1.16136 0.32978,2.37284 -1.25142,4.09498 -0.90965,0.99073 -2.33822,1.70545 -2.94636,2.05663 -0.84168,0.48604 -5.10616,1.69841 -3.08688,3.98771 4.93208,5.5916 10.35838,3.19951 17.74031,2.44408 -0.85811,2.37631 -3.89083,2.66601 -5.29167,4.43357 2.55966,2.666 5.29167,6.26713 7.09957,9.83525 -3.31142,-2.16361 -10.19463,-4.50324 -12.46458,-5.36869 -4.47024,-1.80056 -13.54639,-1.80056 -17.97996,0 0.86545,1.80057 2.66601,2.66601 4.07052,3.56812 -2.30662,4.46657 -6.80986,1.80057 -9.4392,0.89845 -2.30662,1.76756 -6.52383,1.94725 -7.67531,0.90212 0,0 0,-1.11848 1.40452,-2.0536 0.86177,-1.26149 -2.70268,-1.51452 -3.67447,-3.31509 0,-1.69421 1.76022,0 2.77602,-1.80056 -2.30663,-4.43356 -11.63948,-5.36868 -10.34131,-16.07304 z"
           id="path3184"
           inkscape:export-xdpi="89.999992"
           inkscape:export-ydpi="89.999992"
           sodipodi:nodetypes="csssccccccczzccssscsssscccccccccccc" />
      </g>
    </g>
  </g>
</svg>
